<?xml version="1.0" encoding="UTF-8"?>
<svg version="1.1" xmlns="http://www.w3.org/2000/svg" width="250" height="250">
<path d="M0 0 C82.5 0 165 0 250 0 C250 82.5 250 165 250 250 C167.5 250 85 250 0 250 C0 167.5 0 85 0 0 Z " fill="#FEFEFE" transform="translate(0,0)"/>
<path d="M0 0 C0.91285263 -0.00137466 1.82570526 -0.00274933 2.76622009 -0.00416565 C3.76531403 -0.00057037 4.76440796 0.0030249 5.79377747 0.00672913 C6.84760117 0.0065831 7.90142487 0.00643707 8.98718262 0.00628662 C12.47717839 0.00698437 15.96712107 0.01477036 19.45710754 0.02259827 C21.87420625 0.02446294 24.29130533 0.02588661 26.70840454 0.02688599 C33.07555685 0.03070731 39.4426864 0.04053434 45.80982971 0.05158997 C52.30488273 0.06181234 58.79993942 0.06638538 65.29499817 0.07142639 C78.04305666 0.08215693 90.79109228 0.09975064 103.53913879 0.12025452 C103.53913879 10.02025452 103.53913879 19.92025452 103.53913879 30.12025452 C98.04265686 30.13427307 98.04265686 30.13427307 92.43513489 30.14857483 C80.33315883 30.18233008 68.23137208 30.23766983 56.12953758 30.30415726 C48.79162104 30.34394405 41.45381168 30.37633829 34.11579895 30.39125061 C27.71897315 30.40426909 21.32238324 30.43123845 14.92569029 30.47486758 C11.53953121 30.49747841 8.153663 30.51316546 4.76742172 30.51213837 C0.98442344 30.51449986 -2.79765077 30.54151649 -6.58049011 30.57435608 C-7.69970856 30.56932571 -8.818927 30.56429535 -9.97206116 30.55911255 C-16.12286129 30.64181163 -19.78670866 30.99742869 -24.46086121 35.12025452 C-28.08919784 38.93955624 -28.77086579 42.00304458 -28.96086121 47.12025452 C-28.75742126 52.26347055 -28.16457643 55.32394642 -24.46086121 59.12025452 C-19.70248516 62.89805415 -15.61296637 64.81264926 -9.46086121 65.12025452 C-8.69129089 65.19373108 -7.92172058 65.26720764 -7.12882996 65.34291077 C10.05296759 66.30155183 28.26069257 59.31345261 44.60749817 54.51283264 C59.5952812 50.13840793 72.62054861 48.73352341 86.89851379 55.99525452 C98.08157497 62.21967901 106.16632113 72.19031094 110.53913879 84.12025452 C111.69684259 88.19537187 111.7229781 92.16045676 111.72663879 96.37025452 C111.73888489 97.0959967 111.75113098 97.82173889 111.76374817 98.56947327 C111.79782036 111.31247105 106.46884297 122.9316593 97.75007629 132.15150452 C94.03357445 135.46089838 89.92916041 137.8175359 85.53913879 140.12025452 C84.52851379 140.69775452 83.51788879 141.27525452 82.47663879 141.87025452 C75.22026684 144.95807237 67.97103303 145.41083234 60.16999817 145.36317444 C58.67813995 145.36602196 58.67813995 145.36602196 57.15614319 145.368927 C53.89830926 145.37260515 50.64070259 145.3619778 47.38288879 145.35072327 C45.11128261 145.34953029 42.83967594 145.34907855 40.56806946 145.34933472 C35.82401918 145.34777529 31.08004495 145.3395229 26.33601379 145.32606506 C20.24145739 145.30899834 14.14698381 145.30525321 8.05240631 145.30601025 C3.37030745 145.30573914 -1.31177316 145.30026883 -5.99386597 145.2930088 C-8.24265403 145.28981851 -10.49144417 145.28785389 -12.74023438 145.2871151 C-15.8691516 145.28495974 -18.99797878 145.27623535 -22.12687683 145.26551819 C-23.06291748 145.26597137 -23.99895813 145.26642456 -24.96336365 145.26689148 C-31.34638002 145.2347357 -31.34638002 145.2347357 -32.46086121 144.12025452 C-32.54869662 141.90170187 -32.56780729 139.68036955 -32.55851746 137.46009827 C-32.55710251 136.79563187 -32.55568756 136.13116547 -32.55422974 135.44656372 C-32.54861639 133.31691553 -32.53606174 131.18737112 -32.52336121 129.05775452 C-32.51834792 127.61700082 -32.51378472 126.17624549 -32.50968933 124.73548889 C-32.49864265 121.1970435 -32.48136912 117.65865913 -32.46086121 114.12025452 C-31.83855842 114.11878796 -31.21625563 114.1173214 -30.57509518 114.11581039 C-15.41760419 114.078723 -0.26037027 114.01968291 14.89692783 113.93635178 C22.22696858 113.89657976 29.55690225 113.86417802 36.88703918 113.84925842 C43.27764858 113.83623228 49.6680222 113.80924337 56.0584988 113.76564145 C59.44077727 113.74304785 62.82276518 113.72734254 66.20512581 113.72837067 C69.98552452 113.72600626 73.76500224 113.69896596 77.54524231 113.66615295 C78.66086548 113.67118332 79.77648865 113.67621368 80.92591858 113.68139648 C87.34025738 113.59526848 91.33316876 112.96766791 96.53913879 109.12025452 C100.06318641 104.57309631 100.17376001 99.60783046 100.00788879 94.03041077 C99.25210281 89.33823943 97.28355319 86.92661102 93.53913879 84.12025452 C86.18941517 78.89274408 77.17238191 78.97170776 68.53913879 80.12025452 C60.74888221 81.62609193 53.14847502 83.89772562 45.53913879 86.12025452 C43.5864818 86.6765873 41.63336253 87.23130032 39.67976379 87.78431702 C36.15125951 88.78484266 32.62708861 89.79866083 29.10554504 90.82337952 C27.5835534 91.2561771 26.06142625 91.68849854 24.53913879 92.12025452 C23.87543274 92.31820618 23.21172668 92.51615784 22.52790833 92.72010803 C11.03369061 95.93762368 -3.29577952 96.02937253 -14.02336121 90.60462952 C-17.74890632 88.33586807 -21.18485003 86.00626437 -24.46086121 83.12025452 C-25.07703308 82.58529358 -25.69320496 82.05033264 -26.32804871 81.49916077 C-35.02203471 73.4208433 -40.03074928 61.90753249 -40.81242371 50.08119202 C-41.33187084 35.24109459 -37.06109377 23.89540431 -26.96086121 12.93275452 C-20.07123603 6.28431865 -9.78146144 -0.01136058 0 0 Z " fill="#050505" transform="translate(89.46086120605469,52.87974548339844)"/>
</svg>
